<?xml version="1.0" encoding="utf-8"?>
<!-- Generator: Adobe Illustrator 24.0.2, SVG Export Plug-In . SVG Version: 6.00 Build 0)  -->
<svg version="1.1" id="Слой_1" xmlns="http://www.w3.org/2000/svg" xmlns:xlink="http://www.w3.org/1999/xlink" x="0px" y="0px"
	 viewBox="0 0 89 66" style="enable-background:new 0 0 89 66;" xml:space="preserve">
<style type="text/css">
	.st0{fill:#FFFFFF;}
	.st1{fill:#E30613;}
</style>
<g>
	<path class="st0" d="M12.61,65.93l-0.99-16.98H6.74l-0.9,16.98H0.47L4.85,0h8.75l4.48,65.93H12.61z M7.04,44.18h4.28L9.42,9.53
		h-0.4L7.04,44.18z"/>
	<g>
		<g>
			<polygon class="st1" points="23.52,0.1 17.77,0.1 21.03,54.2 26.79,54.2 			"/>
		</g>
		<g>
			<polygon class="st1" points="21.34,58.22 21.83,65.88 27.59,65.88 27.09,58.22 			"/>
		</g>
	</g>
	<g>
		<polygon class="st0" points="32.92,0.1 27.17,0.1 31.39,65.88 37.15,65.88 		"/>
	</g>
	<g>
		<path class="st0" d="M41.06,66V0.04H53.2V5.1h-6.67v23.84h5.97v4.97h-5.97v27.12h7.07V66H41.06z"/>
		<path class="st0" d="M55.49,66V0.04h9.36c2.32,0,3.96,0.6,4.93,1.79c0.96,1.19,1.44,2.88,1.44,5.07v21.16
			c0,2.92-1.13,4.64-3.38,5.17v0.4c1.13,0.27,1.99,0.78,2.59,1.54c0.6,0.76,0.9,2,0.9,3.73V66h-5.37V38.38
			c0-1.65-0.76-2.48-2.29-2.48h-2.69V66H55.49z M65.84,7.49c0-1.59-0.76-2.38-2.29-2.38h-2.59v26.33h2.59
			c1.53,0,2.29-0.93,2.29-2.78V7.49z"/>
		<path class="st0" d="M77.59,66V5.1H72.7V0.04h15.82V5.1h-5.18V66H77.59z"/>
	</g>
</g>
</svg>
